<svg width="22" height="19" viewBox="0 0 22 19" fill="none" xmlns="http://www.w3.org/2000/svg">
<path d="M15.4883 18H10.2617L6.875 11.4492L5.50391 12.2695V18H0.851562V0.867188H5.50391V8.30859C5.73828 7.84766 6.21094 7.11719 6.92188 6.11719L10.5195 0.867188H15.582L10.1797 8.54297L15.4883 18ZM16.5078 16.0547C16.5078 15.3359 16.7188 14.7812 17.1406 14.3906C17.5703 14 18.1914 13.8047 19.0039 13.8047C19.7773 13.8047 20.3711 14 20.7852 14.3906C21.1992 14.7812 21.4062 15.3359 21.4062 16.0547C21.4062 16.7578 21.1914 17.3086 20.7617 17.707C20.3398 18.0977 19.7539 18.293 19.0039 18.293C18.2305 18.293 17.6211 18.0977 17.1758 17.707C16.7305 17.3164 16.5078 16.7656 16.5078 16.0547Z" fill="black"/>
</svg>
